<svg width="93" height="96" viewBox="0 0 93 96" fill="none" xmlns="http://www.w3.org/2000/svg">
<path d="M76.6946 44.4954H88.7492C88.7492 44.4954 93 45.3488 93 49.8291C93 53.6696 90.6689 54.843 89.1758 54.843H76.6946C76.6946 54.843 72.214 54.7367 72.0007 49.6694C71.7874 44.602 76.6946 44.4954 76.6946 44.4954Z" fill="black"/>
<path d="M76.8013 57.2967H88.0025C88.0025 57.2967 93.0001 57.5097 93.0001 62.2036C93.0001 66.898 89.3894 67.5377 88.4291 67.5377C87.4691 67.5377 77.2281 67.5377 77.2281 67.5377C77.2281 67.5377 71.9872 67.7512 71.9938 62.4171C72.0007 57.0832 76.8013 57.2967 76.8013 57.2967Z" fill="black"/>
<path d="M29.8629 6.94458C29.8629 1.18391 35.9435 0.659912 35.9435 0.659912C35.9435 0.659912 70.9338 0.659912 78.2946 0.659912C85.6554 0.659912 85.6554 6.3041 85.6554 6.3041V31.8005C85.6554 31.8005 87.5759 31.8005 88.9627 31.8005C90.3492 31.8005 92.9998 33.6139 92.9998 37.6676C92.9998 41.7213 88.5359 42.255 88.5359 42.255C88.5359 42.255 77.0148 42.255 76.0547 42.255C75.0945 42.255 71.894 41.6149 72.0009 36.9209C72.1075 32.2273 76.3745 31.8005 76.3745 31.8005H81.1751V10.7852H34.5567V22.5192C34.5567 22.5192 42.6643 17.3992 46.894 15.7989C51.1236 14.1984 53.5453 16.6519 53.2256 21.4525C52.9054 26.2535 34.5561 37.8809 34.5561 37.8809V84.179H81.2812V80.339C81.2812 80.339 79.1476 80.339 76.1606 80.339C71.9999 79.1653 72.1067 76.9249 72.1067 73.9379C72.1067 70.9513 76.1606 69.6709 76.1606 69.6709H88.322C90.6687 69.7775 93 71.0577 93 75.3247C93 79.5917 88.7486 80.339 88.7486 80.339L85.4417 80.4453C85.4417 80.4453 85.4417 84.7123 85.4417 89.8332C85.4417 94.9536 79.5744 95.7931 79.5744 95.7931C79.5744 95.7931 41.2768 95.7931 36.0496 95.7931C30.8224 95.7931 29.9692 90.3657 29.9692 90.3657V82.0449C29.9692 82.0449 24.1017 82.0449 21.5415 82.0449C6.82005 80.2316 1.27268 71.2701 0.787834 57.1889C0.302989 43.107 8.95344 36.6007 8.95344 36.6007L29.9692 24.8659C29.9692 24.8659 29.8629 12.7052 29.8629 6.94458ZM57.9193 86.2065C55.9749 86.2065 54.3987 87.6875 54.3987 89.5135C54.3987 91.34 55.9749 92.8204 57.9193 92.8204C59.8633 92.8204 61.4396 91.3398 61.4396 89.5135C61.4394 87.6873 59.8633 86.2065 57.9193 86.2065Z" fill="black"/>
</svg>
