<svg width="95" height="96" viewBox="0 0 95 96" fill="none" xmlns="http://www.w3.org/2000/svg">
<path d="M24.3789 0.66713H70.7119C70.7119 0.66713 79.8173 0.233399 87.8947 8.09016C93.1079 13.3034 95.0167 20.1324 94.943 23.5101V71.6057C94.943 71.6057 95.3101 78.8751 89.8764 85.8509C84.443 92.8265 76.5854 95.6697 71.5192 95.6697H24.011C24.011 95.6697 12.4097 96.2043 4.33235 84.9693C0.257408 78.9283 0 72.4132 0 72.4132V23.1431C0 23.1431 0.293345 14.2585 7.63619 7.28267C14.9788 0.306847 24.3789 0.66713 24.3789 0.66713ZM8.07621 24.5377V72.3395C9.6914 86.8049 23.7902 87.686 23.7902 87.686H71.3721C86.1312 85.7038 86.8653 72.1931 86.8653 72.1931V23.657C85.1032 10.0726 71.8126 8.82465 71.8126 8.82465H24.1574C8.5908 9.63303 8.07621 24.5377 8.07621 24.5377Z" fill="black"/>
<path d="M71.225 48.2553C71.225 61.3541 60.6228 71.9732 47.5442 71.9732C34.4656 71.9732 23.8634 61.3543 23.8634 48.2553C23.8634 35.1563 34.4656 24.5379 47.5442 24.5379C60.6228 24.5379 71.225 35.1565 71.225 48.2553ZM47.4505 31.7339C38.3166 31.7339 30.9125 39.1142 30.9125 48.2185C30.9125 57.3228 38.3166 64.7036 47.4505 64.7036C56.5838 64.7036 63.9886 57.3228 63.9886 48.2185C63.9886 39.1142 56.584 31.7339 47.4505 31.7339Z" fill="black"/>
<path d="M73.7397 27.2549C76.8015 27.2549 79.2836 24.855 79.2836 21.8947C79.2836 18.9343 76.8015 16.5345 73.7397 16.5345C70.6779 16.5345 68.1958 18.9343 68.1958 21.8947C68.1958 24.855 70.6779 27.2549 73.7397 27.2549Z" fill="black"/>
</svg>
