<svg width="99" height="99" viewBox="0 0 99 99" fill="none" xmlns="http://www.w3.org/2000/svg">
<path d="M49.081 98.162C76.1877 98.162 98.162 76.1877 98.162 49.081C98.162 21.9743 76.1877 0 49.081 0C21.9743 0 0 21.9743 0 49.081C0 76.1877 21.9743 98.162 49.081 98.162Z" fill="black"/>
<path d="M29.16 36.1755C32.6594 36.1755 35.4963 33.555 35.4963 30.3223C35.4963 27.0896 32.6594 24.4691 29.16 24.4691C25.6605 24.4691 22.8236 27.0896 22.8236 30.3223C22.8236 33.555 25.6605 36.1755 29.16 36.1755Z" fill="white"/>
<path d="M34.6373 40.6313H23.5756V74.2465H34.6373V40.6313Z" fill="white"/>
<path d="M40.759 40.6313H51.982V45.3567C51.982 45.3567 54.9894 39.8798 61.4866 39.8798C67.9842 39.8798 74.1055 42.8864 74.75 53.4113C74.8034 55.5055 74.75 74.2465 74.75 74.2465H63.6343V55.5593C63.6343 55.5593 63.9268 48.5784 57.7664 48.5784C53.4315 48.5784 52.0356 52.8209 51.928 54.5391V74.2465H40.7588V40.6313H40.759Z" fill="white"/>
</svg>
