<svg width="399" height="369" viewBox="0 0 399 369" fill="none" xmlns="http://www.w3.org/2000/svg">
<path opacity="0.4" d="M199.587 368.977C199.587 368.977 217.165 331.803 187.694 225.684L337.07 182.87L379.14 336.516C379.14 336.516 316.631 355.928 285.193 360.802C253.757 365.671 228.167 366.488 199.587 368.977Z" fill="url(#paint0_linear_26:289)"/>
<path d="M186.445 207.694C186.445 207.694 320.688 173.105 349.579 163.503C353.86 162.077 354.644 166.205 354.644 166.205L363.947 201.866L397.857 324.401C397.857 324.401 400.045 329.502 394.86 331.5C391.167 332.929 377.797 343.338 311.414 349.282C285.514 355.897 251.325 343.807 235.179 337.576C220.972 331.203 216.3 325.96 210.187 308.002C199.628 266.045 185.555 218.372 184.324 214.072C182.625 208.174 186.445 207.694 186.445 207.694Z" fill="#F9ED32"/>
<path d="M215.497 320.914C215.497 320.914 225.203 338 242.449 322.953C242.449 322.953 243.467 320.551 246.701 323.371C249.93 326.187 275.011 352.724 311.414 349.282C308.606 350.023 301.678 351.482 291.394 351.138C275.542 350.614 249.541 345.093 227.248 333.492C224.004 331.258 218.224 326.823 215.497 320.914Z" fill="#D7DF23"/>
<path d="M271.1 219.104C271.1 219.104 279.019 263.624 297.999 310.646C302.041 318.458 305.767 318.23 309.236 316.055C312.708 313.875 312.753 309.304 308.423 295.892C304.094 282.485 288.292 225.321 285.739 217.413C283.183 209.501 277.491 207.331 273.419 208.754C269.356 210.172 270.406 215.496 271.1 219.104Z" fill="black"/>
<path opacity="0.4" d="M198.025 13.36H366.752V173.057H196.219L198.025 13.36Z" fill="#939598"/>
<path d="M199.605 1.00403H367.686C367.686 1.00403 369.647 1.43703 369.647 2.88203C369.647 4.32703 369.647 167.998 369.647 167.998C369.647 167.998 370.366 170.526 367.837 170.89C365.31 171.251 199.605 170.89 199.605 170.89V1.00403Z" fill="#F9ED32"/>
<path opacity="0.4" d="M5.19202 12.357H173.923V172.053H3.38501L5.19202 12.357Z" fill="#939598"/>
<path d="M6.77393 0H174.855C174.855 0 176.813 0.433998 176.813 1.878C176.813 3.322 176.813 166.995 176.813 166.995C176.813 166.995 177.537 169.523 175.006 169.886C172.475 170.247 6.77393 169.886 6.77393 169.886V0Z" fill="#F9ED32"/>
<path opacity="0.4" d="M1.806 203.714H170.535V363.41H0L1.806 203.714Z" fill="#939598"/>
<path d="M3.38501 191.356H171.466C171.466 191.356 173.426 191.79 173.426 193.238C173.426 194.676 173.426 358.349 173.426 358.349C173.426 358.349 174.148 360.877 171.62 361.241C169.089 361.599 3.38501 361.241 3.38501 361.241V191.356Z" fill="#F9ED32"/>
<path d="M54.064 39.233C54.064 39.233 38.651 127.874 84.415 137.027C108.022 141.361 124.88 131.729 133.554 106.676C138.85 84.999 139.816 44.53 133.554 30.079C133.554 30.079 130.966 22.644 123.611 25.626C118.442 27.516 120.132 36.061 120.629 37.254C121.126 38.445 124.605 105.131 109.2 117.256C104.724 121.331 91.706 127.789 81.076 117.059C76.204 111.392 70.54 105.726 69.445 91.615C68.35 77.504 68.156 56.629 71.531 41.128C74.912 25.625 66.167 26.72 64.177 27.116C62.192 27.516 56.571 28.097 54.064 39.233Z" fill="black"/>
<path d="M259.376 28.124L280.692 62.085C280.692 62.085 283.22 64.977 285.029 62.085C286.836 59.194 305.26 29.93 305.26 29.93C305.26 29.93 310.679 23.786 315.738 28.123C320.797 32.457 317.906 37.516 315.738 40.768C313.568 44.02 291.531 76.178 291.531 76.178C291.531 76.178 290.088 79.428 291.891 81.597C293.701 83.762 320.075 123.869 320.075 123.869C320.075 123.869 324.77 132.379 320.075 135.714C315.378 139.044 309.597 136.153 305.261 128.564C300.927 120.98 285.751 97.133 285.751 97.133C285.751 97.133 282.859 92.435 280.692 97.133C278.525 101.831 272.381 117.927 261.182 135.714C258.652 137.959 253.956 138.519 250.341 135.714C246.731 132.901 247.088 127.482 250.341 123.145C253.593 118.811 270.936 88.374 272.741 82.097C274.551 75.815 269.492 70.756 269.492 70.756L247.764 38.238C247.764 38.238 243.838 30.084 250.34 26.574C256.845 23.066 259.376 28.124 259.376 28.124Z" fill="black"/>
<path d="M54.6309 231.754C54.6309 231.754 48.4899 279.811 54.6309 299.317C60.7739 318.83 73.78 332.398 95.82 332.121C117.861 331.839 134.118 311.887 135.924 281.939C137.728 251.992 139.176 231.037 133.755 221.742C128.338 212.448 116.415 218.75 119.303 229.225C122.195 239.705 122.195 283.422 117.136 297.153C112.077 310.882 96.9049 328.225 78.1159 306.907C71.2939 297.763 69.0839 275.475 69.0839 267.886L71.975 229.951C71.975 229.951 71.6119 217.508 61.4949 221.741C55.9229 225.345 54.6309 231.754 54.6309 231.754Z" fill="black"/>
<defs>
<linearGradient id="paint0_linear_26:289" x1="283.417" y1="368.977" x2="283.417" y2="182.869" gradientUnits="userSpaceOnUse">
<stop stop-color="white"/>
<stop offset="0.0239" stop-color="#DFDFDF"/>
<stop offset="0.0628" stop-color="#B0B0B0"/>
<stop offset="0.1052" stop-color="#868686"/>
<stop offset="0.1503" stop-color="#626262"/>
<stop offset="0.1988" stop-color="#434343"/>
<stop offset="0.2518" stop-color="#2B2B2B"/>
<stop offset="0.3109" stop-color="#181818"/>
<stop offset="0.3797" stop-color="#0A0A0A"/>
<stop offset="0.4669" stop-color="#020202"/>
<stop offset="0.6344"/>
</linearGradient>
</defs>
</svg>
